<svg width="17" height="16" viewBox="0 0 17 16" fill="none" xmlns="http://www.w3.org/2000/svg">
<path d="M8.99498 5.26343C8.47619 5.26343 8.05762 5.6933 8.05762 6.22609C8.05762 6.75889 8.47619 7.18876 8.99498 7.18876C9.51377 7.18876 9.93234 6.75889 9.93234 6.22609C9.93824 5.6933 9.51377 5.26343 8.99498 5.26343Z" fill="#EA1D2C"/>
<path d="M12.4685 4.11346C11.8318 2.92072 10.7234 2.15786 9.43824 2.02466C9.14936 1.99439 8.84281 1.99439 8.55393 2.02466C7.26875 2.15786 6.16631 2.92072 5.52962 4.11346C4.85754 5.37279 4.82217 6.88036 5.44708 8.15786L7.97619 13.3466C8.17074 13.7522 8.56572 14.0004 9.00788 14.0004C9.44413 14.0004 9.83912 13.7522 10.0396 13.3466L12.5687 8.15786C13.1759 6.88036 13.1405 5.36674 12.4685 4.11346ZM8.99609 8.09731C7.99387 8.09731 7.17442 7.25574 7.17442 6.22647C7.17442 5.19116 7.99387 4.35564 8.99609 4.35564C10.0042 4.35564 10.8178 5.19721 10.8178 6.22647C10.8236 7.26179 10.0042 8.09731 8.99609 8.09731Z" fill="#EA1D2C"/>
</svg>
